<?xml version="1.0" encoding="UTF-8" standalone="no"?>
<!-- Created with Inkscape (http://www.inkscape.org/) -->

<svg
   xmlns:dc="http://purl.org/dc/elements/1.1/"
   xmlns:cc="http://creativecommons.org/ns#"
   xmlns:rdf="http://www.w3.org/1999/02/22-rdf-syntax-ns#"
   xmlns:svg="http://www.w3.org/2000/svg"
   xmlns="http://www.w3.org/2000/svg"
   xmlns:sodipodi="http://sodipodi.sourceforge.net/DTD/sodipodi-0.dtd"
   xmlns:inkscape="http://www.inkscape.org/namespaces/inkscape"
   width="183.97241mm"
   height="37.795109mm"
   viewBox="0 0 183.97241 37.795109"
   version="1.1"
   id="svg1492"
   inkscape:version="0.92.4 (5da689c313, 2019-01-14)"
   sodipodi:docname="bright-coin.svg">
  <defs
     id="defs1486">
    <filter
       inkscape:collect="always"
       style="color-interpolation-filters:sRGB"
       id="filter879-3"
       x="-0.0012000041"
       width="1.0024"
       y="-0.0011999959"
       height="1.0024">
      <feGaussianBlur
         inkscape:collect="always"
         stdDeviation="0.055063813"
         id="feGaussianBlur881-0" />
    </filter>
  </defs>
  <sodipodi:namedview
     id="base"
     pagecolor="#ffffff"
     bordercolor="#666666"
     borderopacity="1.0"
     inkscape:pageopacity="0.0"
     inkscape:pageshadow="2"
     inkscape:zoom="0.35"
     inkscape:cx="71.950116"
     inkscape:cy="-142.86188"
     inkscape:document-units="mm"
     inkscape:current-layer="layer1"
     showgrid="false"
     fit-margin-top="0"
     fit-margin-left="0"
     fit-margin-right="0"
     fit-margin-bottom="0"
     inkscape:window-width="1920"
     inkscape:window-height="1017"
     inkscape:window-x="-8"
     inkscape:window-y="-8"
     inkscape:window-maximized="1" />
  <metadata
     id="metadata1489">
    <rdf:RDF>
      <cc:Work
         rdf:about="">
        <dc:format>image/svg+xml</dc:format>
        <dc:type
           rdf:resource="http://purl.org/dc/dcmitype/StillImage" />
        <dc:title></dc:title>
      </cc:Work>
    </rdf:RDF>
  </metadata>
  <g
     inkscape:label="Capa 1"
     inkscape:groupmode="layer"
     id="layer1"
     transform="translate(36.045731,-73.23935)">
    <g
       id="g946"
       transform="matrix(0.26458333,0,0,0.26458333,-148.58244,31.018156)"
       style="fill:#c3af83;fill-opacity:1">
      <g
         transform="translate(424.9796,161.42383)"
         id="XMLID_250_-0"
         style="fill:#c3af83;fill-opacity:1">
        <g
           transform="matrix(1.2940001,0,0,1.2940001,-0.10466403,-30.773542)"
           style="fill:#c3af83;fill-opacity:1"
           id="XMLID_265_-6">
          <path
             inkscape:connector-curvature="0"
             style="fill:#c3af83;fill-opacity:1"
             d="m 8.472,64.276 c 2.018,-0.73 3.886,-1.321 5.604,-1.771 1.717,-0.451 3.714,-0.858 5.991,-1.224 2.275,-0.364 4.702,-0.547 7.279,-0.547 1.889,0 3.488,0.183 4.799,0.547 1.31,0.366 2.394,0.784 3.253,1.256 1.675,-0.429 3.585,-0.837 5.733,-1.224 2.146,-0.386 4.444,-0.58 6.892,-0.58 2.276,0 4.133,0.205 5.572,0.612 1.438,0.409 2.576,0.966 3.414,1.675 0.838,0.709 1.417,1.504 1.739,2.383 0.322,0.881 0.483,1.804 0.483,2.77 0,0.966 -0.097,1.922 -0.29,2.867 -0.193,0.945 -0.397,1.826 -0.612,2.641 l -5.733,21.45 h -10.95 l 4.831,-18.036 c 0.343,-1.331 0.676,-2.554 0.999,-3.671 0.322,-1.116 0.504,-2.083 0.547,-2.899 0.042,-0.815 -0.128,-1.459 -0.515,-1.932 -0.387,-0.472 -1.095,-0.709 -2.125,-0.709 -0.816,0 -1.622,0.076 -2.416,0.226 -0.795,0.151 -1.493,0.333 -2.094,0.547 -0.73,0.216 -1.417,0.473 -2.061,0.773 -0.043,0.215 -0.097,0.44 -0.161,0.676 -0.064,0.236 -0.183,0.644 -0.354,1.224 -0.172,0.58 -0.397,1.396 -0.676,2.448 -0.28,1.053 -0.666,2.502 -1.159,4.348 -0.495,1.847 -1.106,4.145 -1.836,6.892 -0.731,2.749 -1.633,6.119 -2.706,10.113 H 20.97 L 25.8,77.095 c 0.343,-1.288 0.676,-2.501 0.998,-3.639 0.322,-1.138 0.493,-2.115 0.516,-2.931 0.021,-0.815 -0.151,-1.459 -0.516,-1.932 -0.365,-0.472 -1.063,-0.709 -2.093,-0.709 -0.816,0 -1.622,0.076 -2.416,0.226 -0.795,0.151 -1.493,0.333 -2.094,0.547 -0.73,0.216 -1.417,0.473 -2.061,0.773 L 11.241,95.131 H 0.356 Z"
             id="XMLID_11_-9" />
          <path
             inkscape:connector-curvature="0"
             style="fill:#c3af83;fill-opacity:1"
             d="m 68.377,61.7 h 10.95 L 70.373,95.131 H 59.488 Z m 12.046,-4.187 h -10.95 l 2.254,-8.374 h 10.95 z"
             id="XMLID_13_-6" />
          <path
             inkscape:connector-curvature="0"
             style="fill:#c3af83;fill-opacity:1"
             d="m 85.833,64.276 c 2.361,-0.73 4.509,-1.321 6.441,-1.771 1.932,-0.45 4.123,-0.858 6.57,-1.224 2.448,-0.364 4.96,-0.547 7.537,-0.547 2.275,0 4.132,0.205 5.572,0.612 1.438,0.409 2.577,0.966 3.414,1.675 0.837,0.709 1.417,1.504 1.739,2.383 0.322,0.881 0.483,1.804 0.483,2.77 0,0.966 -0.097,1.922 -0.29,2.867 -0.193,0.945 -0.397,1.826 -0.612,2.641 l -5.733,21.45 h -10.951 l 4.832,-18.036 c 0.3,-1.159 0.589,-2.287 0.869,-3.382 0.279,-1.095 0.387,-2.071 0.322,-2.931 -0.064,-0.858 -0.409,-1.556 -1.031,-2.094 -0.623,-0.536 -1.686,-0.805 -3.188,-0.805 -0.816,0 -1.6,0.076 -2.351,0.226 -0.752,0.151 -1.428,0.333 -2.029,0.547 -0.688,0.216 -1.332,0.473 -1.933,0.773 L 88.601,95.131 H 77.717 Z"
             id="XMLID_16_-2" />
          <path
             inkscape:connector-curvature="0"
             style="fill:#c3af83;fill-opacity:1"
             d="m 143.677,68.785 h -6.892 l -4.058,15.331 c -0.301,1.03 -0.366,1.804 -0.193,2.318 0.171,0.516 0.525,0.87 1.063,1.063 0.537,0.193 1.256,0.279 2.158,0.258 0.902,-0.021 1.932,-0.032 3.092,-0.032 l -1.997,7.407 c -0.945,0.086 -2.041,0.171 -3.285,0.258 -1.246,0.085 -2.502,0.129 -3.769,0.129 -1.267,0 -2.448,-0.064 -3.543,-0.193 -1.095,-0.129 -1.964,-0.387 -2.608,-0.773 -0.602,-0.343 -1.117,-0.75 -1.546,-1.224 -0.43,-0.472 -0.763,-1.041 -0.999,-1.707 -0.237,-0.665 -0.344,-1.471 -0.322,-2.415 0.021,-0.944 0.204,-2.039 0.548,-3.285 l 4.573,-17.135 h -5.475 l 1.932,-7.085 h 5.476 l 2.705,-10.113 h 10.951 l -2.77,10.113 h 6.893 z"
             id="XMLID_18_-6" />
        </g>
        <g
           transform="matrix(1.2940001,0,0,1.2940001,-0.10466403,-30.773542)"
           style="fill:#c3af83;fill-opacity:1"
           id="XMLID_264_-5">
          <path
             inkscape:connector-curvature="0"
             style="fill:#c3af83;fill-opacity:1"
             d="m 257.935,94.801 c -0.198,0 -0.353,-0.071 -0.462,-0.215 -0.11,-0.143 -0.133,-0.324 -0.066,-0.545 l 1.223,-4.625 c 0.065,-0.22 0.187,-0.401 0.363,-0.545 0.176,-0.143 0.363,-0.215 0.562,-0.215 h 4.69 c 0.198,0 0.352,0.072 0.463,0.215 0.109,0.144 0.132,0.325 0.065,0.545 l -1.222,4.625 c -0.066,0.221 -0.188,0.402 -0.363,0.545 -0.177,0.144 -0.364,0.215 -0.563,0.215 z"
             id="XMLID_2_-0" />
          <path
             inkscape:connector-curvature="0"
             style="fill:#c3af83;fill-opacity:1"
             d="m 275.492,82.017 c -0.299,1.124 -0.416,2.181 -0.35,3.172 0.066,0.99 0.331,1.85 0.794,2.576 0.464,0.728 1.133,1.297 2.008,1.71 0.875,0.413 1.974,0.619 3.295,0.619 0.825,0 1.636,-0.091 2.429,-0.272 0.792,-0.182 1.576,-0.404 2.354,-0.669 0.775,-0.265 1.536,-0.553 2.279,-0.867 0.743,-0.313 1.494,-0.619 2.254,-0.917 l -1.685,6.293 c -0.595,0.166 -1.23,0.355 -1.907,0.57 -0.678,0.215 -1.446,0.421 -2.305,0.619 -0.859,0.198 -1.842,0.363 -2.948,0.495 -1.106,0.132 -2.37,0.198 -3.79,0.198 -2.25,0 -4.181,-0.314 -5.793,-0.941 -1.611,-0.627 -2.891,-1.527 -3.837,-2.7 -0.947,-1.173 -1.527,-2.609 -1.742,-4.312 -0.215,-1.7 -0.042,-3.624 0.521,-5.772 0.564,-2.08 1.411,-3.955 2.542,-5.624 1.129,-1.667 2.475,-3.088 4.036,-4.261 1.561,-1.172 3.314,-2.073 5.265,-2.701 1.948,-0.627 4.046,-0.941 6.292,-0.941 1.42,0 2.643,0.067 3.667,0.198 1.023,0.132 1.915,0.297 2.676,0.496 0.76,0.198 1.42,0.405 1.982,0.62 0.561,0.215 1.105,0.405 1.635,0.57 l -1.685,6.292 c -0.595,-0.297 -1.182,-0.602 -1.759,-0.917 -0.579,-0.313 -1.182,-0.603 -1.809,-0.867 -0.628,-0.264 -1.289,-0.487 -1.982,-0.669 -0.693,-0.181 -1.454,-0.272 -2.279,-0.272 -1.321,0 -2.535,0.223 -3.642,0.669 -1.107,0.446 -2.099,1.049 -2.974,1.809 -0.875,0.76 -1.61,1.635 -2.204,2.626 -0.595,0.99 -1.041,2.048 -1.338,3.17 z"
             id="XMLID_4_-5" />
          <path
             inkscape:connector-curvature="0"
             style="fill:#c3af83;fill-opacity:1"
             d="m 294.022,81.918 c 0.496,-1.916 1.273,-3.708 2.333,-5.376 1.059,-1.667 2.333,-3.104 3.822,-4.311 1.489,-1.206 3.169,-2.163 5.038,-2.874 1.87,-0.71 3.864,-1.065 5.982,-1.065 2.118,0 3.93,0.347 5.436,1.041 1.506,0.694 2.68,1.652 3.524,2.874 0.844,1.223 1.348,2.668 1.514,4.335 0.164,1.668 0,3.46 -0.496,5.376 -0.529,1.949 -1.324,3.749 -2.383,5.4 -1.06,1.652 -2.333,3.09 -3.822,4.312 -1.489,1.223 -3.178,2.18 -5.063,2.874 -1.886,0.693 -3.888,1.04 -6.006,1.04 -2.119,0 -3.922,-0.355 -5.411,-1.065 -1.49,-0.71 -2.648,-1.667 -3.475,-2.874 -0.827,-1.205 -1.323,-2.634 -1.488,-4.286 -0.166,-1.652 0,-3.452 0.495,-5.401 z m 8.276,0.05 c -0.298,1.058 -0.496,2.073 -0.595,3.047 -0.1,0.975 -0.059,1.842 0.124,2.602 0.181,0.76 0.545,1.362 1.09,1.809 0.545,0.445 1.346,0.669 2.403,0.669 1.023,0 1.939,-0.224 2.75,-0.669 0.809,-0.446 1.511,-1.049 2.105,-1.809 0.594,-0.76 1.098,-1.627 1.512,-2.602 0.412,-0.974 0.768,-1.989 1.065,-3.047 0.297,-1.091 0.503,-2.131 0.619,-3.122 0.115,-0.991 0.074,-1.866 -0.124,-2.626 -0.198,-0.76 -0.578,-1.363 -1.14,-1.809 -0.563,-0.446 -1.354,-0.669 -2.379,-0.669 -1.023,0 -1.932,0.223 -2.725,0.669 -0.793,0.446 -1.486,1.049 -2.081,1.809 -0.595,0.76 -1.107,1.635 -1.536,2.626 -0.428,0.991 -0.791,2.031 -1.088,3.122 z"
             id="XMLID_6_-0" />
          <path
             inkscape:connector-curvature="0"
             style="fill:#c3af83;fill-opacity:1"
             d="m 327.617,71.066 c 1.552,-0.561 2.989,-1.016 4.311,-1.362 1.32,-0.347 2.856,-0.661 4.608,-0.942 1.75,-0.28 3.617,-0.421 5.599,-0.421 1.453,0 2.684,0.141 3.691,0.421 1.008,0.281 1.842,0.604 2.503,0.966 1.288,-0.33 2.757,-0.644 4.409,-0.941 1.651,-0.297 3.419,-0.446 5.302,-0.446 1.751,0 3.18,0.157 4.286,0.471 1.106,0.314 1.982,0.743 2.626,1.288 0.645,0.545 1.091,1.157 1.338,1.833 0.248,0.677 0.372,1.387 0.372,2.131 0,0.743 -0.074,1.479 -0.223,2.205 -0.149,0.727 -0.307,1.405 -0.471,2.032 l -4.41,16.5 h -8.424 l 3.717,-13.874 c 0.264,-1.023 0.52,-1.965 0.768,-2.824 0.248,-0.858 0.388,-1.602 0.421,-2.229 0.033,-0.627 -0.099,-1.123 -0.396,-1.487 -0.297,-0.363 -0.842,-0.545 -1.635,-0.545 -0.628,0 -1.247,0.058 -1.858,0.173 -0.611,0.116 -1.147,0.256 -1.61,0.421 -0.562,0.166 -1.09,0.364 -1.585,0.594 -0.033,0.166 -0.074,0.339 -0.124,0.521 -0.05,0.182 -0.141,0.496 -0.272,0.941 -0.133,0.446 -0.306,1.074 -0.521,1.883 -0.215,0.811 -0.513,1.925 -0.892,3.345 -0.381,1.421 -0.852,3.188 -1.412,5.302 -0.563,2.114 -1.256,4.707 -2.081,7.779 h -8.424 l 3.716,-13.874 c 0.265,-0.991 0.521,-1.924 0.769,-2.799 0.248,-0.875 0.379,-1.627 0.396,-2.254 0.016,-0.627 -0.116,-1.123 -0.396,-1.487 -0.281,-0.363 -0.817,-0.545 -1.61,-0.545 -0.628,0 -1.247,0.058 -1.858,0.173 -0.611,0.116 -1.148,0.256 -1.61,0.421 -0.562,0.166 -1.09,0.364 -1.585,0.594 l -5.303,19.771 h -8.373 z"
             id="XMLID_9_-4" />
        </g>
        <g
           transform="matrix(1.2940001,0,0,1.2940001,-0.10466403,-30.773542)"
           style="opacity:0.98999999;fill:#c3af83;fill-opacity:1;filter:url(#filter879-3)"
           id="XMLID_251_-6">
          <path
             inkscape:connector-curvature="0"
             style="fill:#c3af83;fill-opacity:1"
             d="m 241.268,38.614 c -21.504,-21.504 -56.368,-21.504 -77.872,0 -21.504,21.504 -21.504,56.368 0,77.872 21.504,21.504 56.368,21.504 77.872,0 21.503,-21.504 21.503,-56.369 0,-77.872 z m -0.786,77.173 c -21.026,21.026 -55.117,21.026 -76.143,0 -21.026,-21.026 -21.026,-55.117 0,-76.143 21.026,-21.026 55.117,-21.026 76.143,0 21.026,21.026 21.027,55.117 0,76.143 z"
             id="XMLID_261_-9" />
          <path
             inkscape:connector-curvature="0"
             style="fill:#c3af83;fill-opacity:1"
             d="m 238.748,41.299 c -20.112,-20.112 -52.72,-20.112 -72.833,0 -20.113,20.112 -20.112,52.72 0,72.833 20.112,20.113 52.72,20.112 72.833,0 20.113,-20.112 20.112,-52.721 0,-72.833 z m -0.418,72.336 c -19.838,19.838 -52.002,19.838 -71.839,0 -19.838,-19.838 -19.838,-52.002 0,-71.839 19.838,-19.837 52.002,-19.838 71.839,0 19.838,19.838 19.838,52.001 0,71.839 z"
             id="XMLID_258_-3" />
          <g
             style="fill:#c3af83;fill-opacity:1"
             id="XMLID_252_-3">
            <path
               inkscape:connector-curvature="0"
               style="fill:#c3af83;fill-opacity:1"
               d="m 235.628,73.672 c -0.289,-0.505 -0.73,-0.901 -1.326,-1.191 -0.595,-0.288 -1.362,-0.433 -2.3,-0.433 -1.913,0 -3.455,0.506 -4.627,1.515 -1.173,1.01 -2.12,2.381 -2.841,4.113 h 11.418 c 0.144,-0.793 0.198,-1.533 0.162,-2.219 -0.035,-0.684 -0.198,-1.279 -0.486,-1.785 z"
               id="XMLID_257_-8" />
            <path
               inkscape:connector-curvature="0"
               style="fill:#c3af83;fill-opacity:1"
               d="m 237.668,42.458 c -19.472,-19.472 -51.043,-19.472 -70.515,0 -19.472,19.472 -19.472,51.043 0,70.515 19.472,19.472 51.043,19.472 70.515,0 19.473,-19.472 19.473,-51.043 0,-70.515 z m -40.081,52.589 6.223,-29.329 h -0.108 l -15.314,29.329 h -8.117 l 0.379,-29.329 h -0.108 l -9.47,29.329 h -9.957 L 173.561,56.41 h 14.827 c -0.108,3.211 -0.216,6.133 -0.325,8.766 -0.036,1.119 -0.073,2.237 -0.108,3.355 -0.036,1.119 -0.063,2.147 -0.081,3.084 -0.019,0.939 -0.036,1.75 -0.054,2.435 -0.019,0.686 -0.027,1.155 -0.027,1.407 0,0.722 -0.027,1.561 -0.081,2.516 -0.054,0.956 -0.117,1.867 -0.189,2.733 -0.073,1.01 -0.145,2.039 -0.216,3.084 h 0.108 c 0.469,-1.046 0.938,-2.074 1.407,-3.084 0.397,-0.866 0.82,-1.776 1.272,-2.733 0.451,-0.956 0.874,-1.794 1.272,-2.516 0.144,-0.252 0.387,-0.721 0.731,-1.407 0.342,-0.685 0.748,-1.496 1.217,-2.435 0.468,-0.938 0.983,-1.966 1.542,-3.084 0.559,-1.118 1.127,-2.237 1.705,-3.355 1.334,-2.633 2.795,-5.555 4.383,-8.766 h 14.827 L 207.6,95.047 Z m 46.564,-14.503 c -0.199,0.902 -0.496,1.822 -0.893,2.76 H 223.02 c -0.181,0.758 -0.235,1.524 -0.162,2.3 0.072,0.776 0.325,1.48 0.758,2.111 0.433,0.632 1.064,1.155 1.894,1.569 0.83,0.415 1.93,0.622 3.301,0.622 0.901,0 1.902,-0.099 3.003,-0.298 1.1,-0.198 2.2,-0.441 3.301,-0.731 1.1,-0.288 2.173,-0.604 3.22,-0.947 1.046,-0.342 1.984,-0.676 2.814,-1.001 l -3.247,7.251 c -0.036,0.073 -0.415,0.199 -1.136,0.379 -0.722,0.181 -1.642,0.37 -2.76,0.568 -1.119,0.198 -2.363,0.37 -3.734,0.514 -1.371,0.144 -2.706,0.216 -4.004,0.216 -2.454,0 -4.555,-0.343 -6.304,-1.028 -1.75,-0.685 -3.139,-1.668 -4.167,-2.949 -1.028,-1.28 -1.66,-2.849 -1.894,-4.708 -0.235,-1.858 -0.046,-3.959 0.568,-6.304 0.649,-2.417 1.623,-4.546 2.922,-6.385 1.299,-1.84 2.795,-3.382 4.491,-4.627 1.695,-1.245 3.553,-2.182 5.574,-2.814 2.02,-0.631 4.058,-0.947 6.115,-0.947 1.984,0 3.715,0.307 5.195,0.92 1.479,0.614 2.678,1.461 3.598,2.543 0.92,1.082 1.569,2.336 1.948,3.761 0.379,1.426 0.478,2.949 0.298,4.573 -0.109,0.866 -0.263,1.751 -0.461,2.652 z"
               id="XMLID_253_-9" />
          </g>
        </g>
      </g>
      <g
         aria-label="Coin"
         style="font-style:normal;font-weight:normal;font-size:83.9234848px;line-height:1.25;font-family:sans-serif;letter-spacing:0px;word-spacing:0px;fill:#c3af83;fill-opacity:1;stroke:none;stroke-width:2.09808707"
         id="text850-9">
        <path
           d="m 956.15604,223.88821 q -1.00708,3.77656 -1.00708,7.38526 0.0839,3.52479 1.34277,6.29427 1.34278,2.76947 3.94441,4.44794 2.68555,1.59455 6.88172,1.59455 2.68555,0 5.62288,-0.58747 2.93732,-0.58746 5.79072,-1.51062 2.93732,-0.92316 5.70679,-2.01416 2.8534,-1.09101 5.28718,-2.09809 l -3.60871,13.34383 q -1.93024,0.50354 -4.11225,1.25886 -2.09809,0.75531 -4.86756,1.42669 -2.76948,0.58747 -6.29426,1.00709 -3.44086,0.50354 -8.05666,0.50354 -7.04957,0 -12.1689,-2.18201 -5.03541,-2.18201 -7.88881,-6.29426 -2.8534,-4.11226 -3.44086,-9.90298 -0.58747,-5.87464 1.34277,-13.17598 1.84632,-6.96565 5.53895,-12.67245 3.69264,-5.7068 8.72805,-9.73512 5.03541,-4.11225 11.24574,-6.29426 6.29426,-2.26594 13.34384,-2.26594 4.61579,0 7.8888,0.50354 3.27302,0.41962 5.62288,1.09101 2.43378,0.58746 4.19617,1.34277 1.84632,0.67139 3.44088,1.25886 l -3.5248,13.25991 q -1.93024,-0.92316 -4.19618,-2.01417 -2.18201,-1.091 -4.61579,-1.93024 -2.43378,-0.92316 -5.03541,-1.51062 -2.60162,-0.58746 -5.28718,-0.58746 -4.19617,0 -7.72096,1.76239 -3.52478,1.67847 -6.37818,4.53187 -2.76948,2.8534 -4.78364,6.46211 -1.93024,3.52478 -2.93732,7.30134 z"
           style="font-style:italic;font-variant:normal;font-weight:900;font-stretch:normal;font-family:PaloAlto;-inkscape-font-specification:'PaloAlto Heavy Italic';fill:#c3af83;fill-opacity:1;stroke-width:2.09808707"
           id="path2115" />
        <path
           d="m 1010.6722,232.02879 q -0.7553,2.68555 -1.0071,5.20325 -0.2517,2.43378 0.1679,4.36402 0.5035,1.93024 1.8463,3.10517 1.4267,1.09101 4.1122,1.09101 2.6017,0 4.6158,-1.09101 2.0981,-1.17493 3.6087,-3.10517 1.5107,-1.93024 2.5177,-4.36402 1.0911,-2.5177 1.8464,-5.20325 0.7553,-2.76948 1.007,-5.28718 0.3357,-2.51771 -0.1678,-4.44795 -0.5035,-1.93024 -1.9302,-3.02124 -1.4267,-1.17493 -4.0284,-1.17493 -2.6016,0 -4.6158,1.17493 -2.0141,1.091 -3.5247,3.02124 -1.5107,1.93024 -2.6017,4.44795 -1.091,2.5177 -1.8463,5.28718 z m -14.01521,-0.0839 q 1.25885,-4.86756 3.94441,-9.06373 2.6855,-4.2801 6.4621,-7.30135 3.7766,-3.10517 8.4763,-4.86756 4.7836,-1.84632 10.1547,-1.84632 5.3711,0 9.1477,1.7624 3.8605,1.76239 5.9585,4.86756 2.182,3.10517 2.6017,7.38527 0.4196,4.19617 -0.8393,9.06373 -1.3427,4.95149 -4.0283,9.14766 -2.6855,4.19618 -6.4621,7.30135 -3.7766,3.10516 -8.5602,4.86756 -4.7836,1.76239 -10.1547,1.76239 -5.3711,0 -9.1477,-1.76239 -3.7766,-1.84632 -5.87464,-4.86756 -2.09809,-3.10517 -2.51771,-7.30135 -0.41962,-4.19617 0.83924,-9.14766 z"
           style="font-style:italic;font-variant:normal;font-weight:900;font-stretch:normal;font-family:PaloAlto;-inkscape-font-specification:'PaloAlto Heavy Italic';fill:#c3af83;fill-opacity:1;stroke-width:2.09808707"
           id="path2117" />
        <path
           d="m 1055.5464,210.20868 h 14.267 l -11.6654,43.55629 h -14.1831 z m 15.6937,-5.45503 h -14.267 l 2.9373,-10.91005 h 14.267 z"
           style="font-style:italic;font-variant:normal;font-weight:900;font-stretch:normal;font-family:PaloAlto;-inkscape-font-specification:'PaloAlto Heavy Italic';fill:#c3af83;fill-opacity:1;stroke-width:2.09808707"
           id="path2119" />
        <path
           d="m 1079.2901,213.56562 q 0,0 2.266,-0.67139 2.3498,-0.75531 6.1264,-1.59454 3.7766,-0.92316 8.5602,-1.59455 4.7836,-0.75531 9.819,-0.75531 4.448,0 7.2175,0.83923 2.8534,0.75531 4.4479,2.18201 1.6785,1.34278 2.2659,3.10517 0.6714,1.67847 0.6714,3.60871 0,1.84632 -0.4196,3.69264 -0.3357,1.84631 -0.7553,3.44086 l -7.4692,27.94652 h -14.267 l 6.2943,-23.49858 q 0.5874,-2.26593 1.091,-4.36402 0.5874,-2.18201 0.4196,-3.86048 -0.084,-1.67847 -1.3428,-2.68555 -1.1749,-1.09101 -4.1122,-1.09101 -1.5946,0 -3.1052,0.3357 -1.4267,0.25177 -2.6016,0.67139 -1.3428,0.41961 -2.5177,1.00708 l -8.9798,33.48547 h -14.1831 z"
           style="font-style:italic;font-variant:normal;font-weight:900;font-stretch:normal;font-family:PaloAlto;-inkscape-font-specification:'PaloAlto Heavy Italic';fill:#c3af83;fill-opacity:1;stroke-width:2.09808707"
           id="path2121" />
      </g>
    </g>
  </g>
</svg>
